<svg version="1.1" id="Capa_1" xmlns="http://www.w3.org/2000/svg" xmlns:xlink="http://www.w3.org/1999/xlink" x="0px" y="0px" viewBox="0 0 514 223" style="enable-background:new 0 0 514 223;" xml:space="preserve">
    <g xmlns="http://www.w3.org/2000/svg">
			<path class="st3" d="M255.92,96.69c4.19,0,8.38,0.05,12.57-0.03c1.17-0.02,1.65,0.42,1.88,1.44c0.69,2.92-1.4,6.82-4.25,7.77     c-0.69,0.23-0.91,0.54-0.9,1.23c0.03,2.12-0.01,4.23,0,6.34c0,0.72-0.01,1.32-1.01,1.29c-0.93-0.02-1.06-0.49-1.03-1.27     c0.06-1.99,0.02-3.98,0.07-5.97c0.02-0.77-0.22-1.09-1.03-1.16c-3.81-0.33-7.07-1.95-10-4.32c-2.37-1.91-4.98-3.25-8.07-3.57     c-0.69-0.07-1.39-0.27-1.95-0.75c-0.14-0.13-0.31-0.34-0.3-0.5c0.02-0.34,0.36-0.28,0.58-0.28c1.16-0.01,2.32-0.01,3.48-0.01     c3.32,0,6.64,0,9.95,0C255.92,96.82,255.92,96.75,255.92,96.69z"/>
			<path class="st3" d="M274.69,102.21c-1.41,3.33-3.79,5.58-7.32,6.52c-0.48,0.13-1.09,0.7-1.5-0.06c-0.42-0.79,0-2.14,0.68-2.4     c2.91-1.13,4.27-3.41,4.69-6.35c0.29-2.02-0.42-3.3-2.24-4.28c-1.85-0.98-3.89-1.39-5.9-1.89c-2.5-0.63-4.77-1.67-6.56-3.59     c-2.16-2.32-2.7-5.96-1.27-8.42c1.43-2.47,4.65-3.76,7.55-3.04c1.84,0.46,3.09,1.55,3.56,3.42c0.17,0.68,0.4,1.24,1.05,1.59     c0.52,0.27,0.76,0.77,0.72,1.35c-0.08,1.2-0.28,2.39-0.81,3.49c-0.4,0.84-1,0.95-1.69,0.36c-1-0.87-1.65-1.96-1.95-3.25     c-0.15-0.67,0.06-1.24,0.62-1.64c0.61-0.43,0.53-0.92,0.24-1.5c-0.75-1.5-2.38-2.37-4.13-2.15c-1.79,0.22-3.08,1.5-3.45,3.43     c-0.47,2.5,0.63,4.66,3.06,5.95c2.12,1.12,4.47,1.47,6.77,2c1.42,0.32,2.83,0.65,4.18,1.2c1.9,0.77,3.33,2,3.95,4.02     c0.86,0.64,0.58,1.58,0.56,2.4C275.48,100.36,275.58,101.44,274.69,102.21z"/>
			<path class="st3" d="M261.71,114.15c-0.03,0.29,0.1,0.45,0.37,0.56c1.74,0.69,3.48,0.72,5.19-0.05c0.75-0.34,1.14-0.99,0.94-1.83     c-0.19-0.81-0.84-0.96-1.56-0.86c-0.39,0.06-0.76,0.17-0.84-0.39c-0.07-0.49-0.2-1.05,0.45-1.26c1.66-0.54,3.34-0.75,4.95,0.12     c1.45,0.79,1.57,2.84,0.29,4.33c-1.25,1.45-2.94,2.13-4.75,2.51c-2.76,0.58-5.37,0.27-7.62-1.61c-1.57-1.31-2.04-3.02-1.51-4.93     c0.56-2.02,1.92-3.34,4-3.86c0.67-0.17,1.06,0.02,1.05,0.76c-0.01,0.93,0.09,1.77-1.04,2.37c-1.35,0.72-1.54,2.44-0.65,3.61     C261.36,113.6,261.64,113.73,261.71,114.15z"/>
			<path class="st3" d="M261.21,129.61c-2.67,0.28-5.35,0.13-8.3,0.19c0.62-0.76,1.25-0.95,1.87-0.96c2.54-0.03,4.69-1.54,7.16-1.85     c0.74-0.09,1.11-0.64,1.06-1.44c-0.02-0.33-0.03-0.68,0.06-0.99c0.13-0.42-0.19-1.24,0.79-1.02c0.71,0.16,1.64-0.03,1.47,1.28     c-0.19,1.48,0.3,2.1,1.79,2.25c2.55,0.27,4.83,1.71,7.44,1.69c0.37,0,0.82,0.11,1.07,0.8c-2.2,0-4.32,0-6.44,0     C266.52,129.42,263.86,129.33,261.21,129.61z"/>
			<path class="st3" d="M286.88,96.98c-0.44,0.7-1.16,0.97-1.89,1.05c-3.88,0.44-7.03,2.31-9.81,4.91c-0.06-0.11-0.15-0.2-0.13-0.34     c0.32-1.82,0.26-3.68,0.56-5.51c0.27-0.22,0.59-0.25,0.93-0.25c3.29,0,6.58,0,9.88,0C286.58,96.85,286.74,96.88,286.88,96.98z"/>
			<path class="st3" d="M264.49,121.38c1.19,0.59,2.55,0.54,3.79,0.96c1.27,0.44,1.78,0.85,2.2,2.17c-2.43-1.85-5.1-1.07-7.56-1.62     c-2.3-0.52-4.09-2.35-4.14-4.34c-0.02-0.63-0.1-1.41,0.61-1.74c0.49-0.23,2.05,1.09,2.12,1.69c0.2,1.58,0.56,2.08,1.75,2.37     C263.87,120.54,264.29,120.69,264.49,121.38z"/>
			<path class="st3" d="M264.49,121.38c-0.41-0.17-0.83-0.33-1.24-0.5c-0.49-0.82,0-1.71-0.17-2.55c-0.04-0.2,0.12-0.45,0.37-0.4     c0.56,0.11,1.18-0.11,1.67,0.23c0.29,0.2,0.13,2.82-0.16,3.08C264.86,121.34,264.65,121.34,264.49,121.38z"/>
			<path class="st3" d="M275.61,97.24c0.33,1.94-0.14,3.81-0.44,5.7c-0.16-0.24-0.32-0.49-0.48-0.73c0.42-1.73,0.67-3.48,0.26-5.25     c0.16-0.08,0.31-0.16,0.46-0.23C275.57,96.86,275.66,97.03,275.61,97.24z"/>
			<path class="st3" d="M261.71,114.15c-0.33-0.06-0.57-0.23-0.75-0.51c0.03-0.16,0.05-0.32,0.08-0.48     c0.14-0.64,0.48-1.12,1.13-1.31c0.22-0.06,0.42,0.08,0.44,0.31c0.06,0.68,0.19,1.4-0.59,1.82     C261.93,114.04,261.82,114.09,261.71,114.15z"/>
			<path class="st3" d="M275.61,97.24c-0.07-0.17-0.13-0.35-0.2-0.52c3.65-0.02,7.31-0.04,10.96-0.04c0.19,0,0.52-0.12,0.5,0.3     c-3.15,0-6.29,0-9.44-0.01C276.82,96.97,276.2,96.97,275.61,97.24z"/>
			<path class="st3" d="M261.21,129.61c0.85-0.47,1.79-0.29,2.67-0.26c1.77,0.06,3.55-0.28,5.29,0.21     C266.52,129.58,263.86,129.59,261.21,129.61z"/>
	</g>
</svg>