<svg id="Capa_1" data-name="Capa 1" xmlns="http://www.w3.org/2000/svg" viewBox="0 0 223 253"><defs><style>.cls-1{fill:#262424;fill-rule:evenodd;}</style></defs><title>Logo serpiente</title><path class="cls-1" d="M72.06,90.56c19.27,0,38.55.23,57.83-.14,5.38-.09,7.59,1.93,8.65,6.63,3.17,13.43-6.44,31.37-19.55,35.74-3.18,1.06-4.19,2.49-4.15,5.66.14,9.76,0,19.47,0,29.17,0,3.32,0,6.08-4.64,5.94-4.28-.09-4.88-2.26-4.74-5.84.27-9.16.09-18.32.32-27.47.09-3.54-1-5-4.74-5.34-17.53-1.52-32.53-9-46-19.88-10.9-8.78-22.91-15-37.13-16.42a16,16,0,0,1-9-3.45,3.8,3.8,0,0,1-1.38-2.3c.09-1.57,1.66-1.29,2.67-1.29,5.34,0,10.67,0,16,0H72A6.78,6.78,0,0,0,72.06,90.56Z"/><path class="cls-1" d="M158.41,116c-6.48,15.33-17.43,25.68-33.67,30-2.21.6-5,3.22-6.9-.27-1.94-3.64,0-9.85,3.12-11.05,13.39-5.19,19.65-15.68,21.58-29.21,1.34-9.29-1.93-15.18-10.3-19.69-8.52-4.51-17.9-6.4-27.15-8.7-11.5-2.9-22-7.68-30.18-16.52C65,49.84,62.49,33.09,69.07,21.77s21.39-17.29,34.73-14c8.47,2.11,14.22,7.13,16.38,15.73.78,3.13,1.84,5.71,4.83,7.32a6.17,6.17,0,0,1,3.32,6.21,43.13,43.13,0,0,1-3.73,16.06c-1.84,3.86-4.6,4.37-7.78,1.65a27.66,27.66,0,0,1-9-14.95,6.88,6.88,0,0,1,2.85-7.55c2.81-2,2.44-4.23,1.11-6.9a18.44,18.44,0,0,0-19-9.89c-8.24,1-14.17,6.9-15.88,15.78C74.77,42.75,79.83,52.69,91,58.63c9.76,5.15,20.57,6.76,31.15,9.2a120.72,120.72,0,0,1,19.23,5.52c8.74,3.54,15.32,9.2,18.17,18.5,4,2.94,2.67,7.27,2.58,11C162.05,107.44,162.51,112.41,158.41,116Z"/><path class="cls-1" d="M98.7,170.89a2.28,2.28,0,0,0,1.7,2.58c8,3.17,16,3.31,23.88-.23,3.45-1.57,5.24-4.56,4.32-8.42s-3.86-4.42-7.18-4c-1.79.28-3.49.78-3.86-1.79-.32-2.26-.92-4.84,2.07-5.8,7.64-2.49,15.37-3.45,22.77.55,6.68,3.64,7.23,13.07,1.34,19.92-5.75,6.67-13.53,9.8-21.86,11.55-12.69,2.67-24.7,1.24-35-7.41-7.23-6-9.39-13.89-7-22.68,2.57-9.29,8.83-15.37,18.4-17.76,3.08-.78,4.88.09,4.83,3.5,0,4.28.42,8.14-4.78,10.9-6.21,3.31-7.09,11.23-3,16.61C97.08,168.36,98.37,169,98.7,170.89Z"/><path class="cls-1" d="M96.39,242c-12.28,1.29-24.61.6-38.18.87,2.85-3.49,5.75-4.37,8.6-4.41,11.69-.14,21.58-7.09,32.94-8.51,3.41-.42,5.11-2.95,4.88-6.63a13.54,13.54,0,0,1,.28-4.55c.59-1.94-.88-5.71,3.63-4.7,3.27.74,7.55-.14,6.76,5.89-.87,6.81,1.38,9.66,8.24,10.35,11.73,1.25,22.22,7.87,34.23,7.78,1.7,0,3.77.5,4.92,3.68H133.06C120.83,241.15,108.59,240.73,96.39,242Z"/><path class="cls-1" d="M214.5,91.89c-2,3.22-5.34,4.47-8.7,4.83-17.85,2-32.34,10.63-45.13,22.59-.28-.5-.69-.92-.6-1.56,1.47-8.37,1.2-16.93,2.58-25.35a6.37,6.37,0,0,1,4.28-1.15h45.45A3.87,3.87,0,0,1,214.5,91.89Z"/><path class="cls-1" d="M111.49,204.15c5.47,2.72,11.73,2.49,17.43,4.42,5.85,2,8.19,3.91,10.13,10-11.18-8.52-23.47-4.93-34.79-7.46-10.58-2.39-18.82-10.81-19.05-20-.09-2.89-.46-6.48,2.81-8,2.26-1.06,9.43,5,9.76,7.77.92,7.27,2.57,9.57,8,10.91C108.63,200.29,110.57,201,111.49,204.15Z"/><path class="cls-1" d="M111.49,204.15c-1.89-.78-3.82-1.51-5.71-2.3-2.25-3.77,0-7.86-.78-11.73a1.52,1.52,0,0,1,1.7-1.84c2.58.51,5.43-.5,7.68,1.06,1.34.92.6,13-.73,14.17C113.19,204,112.22,204,111.49,204.15Z"/><path class="cls-1" d="M162.65,93.09c1.52,8.92-.65,17.53-2,26.22-.73-1.1-1.47-2.25-2.21-3.36,1.94-8,3.09-16,1.2-24.15.74-.37,1.43-.74,2.12-1.06A2.26,2.26,0,0,1,162.65,93.09Z"/><path class="cls-1" d="M98.7,170.89a5,5,0,0,1-3.46-2.35c.14-.73.23-1.47.37-2.21.65-2.94,2.21-5.15,5.2-6a1.57,1.57,0,0,1,2,1.42c.27,3.13.87,6.45-2.72,8.38C99.71,170.38,99.2,170.61,98.7,170.89Z"/><path class="cls-1" d="M162.65,93.09c-.32-.78-.6-1.61-.92-2.39,16.79-.1,33.63-.19,50.42-.19.88,0,2.4-.55,2.3,1.38-14.49,0-28.94,0-43.43,0C168.21,91.85,165.36,91.85,162.65,93.09Z"/><path class="cls-1" d="M96.39,242c3.92-2.16,8.24-1.33,12.29-1.2,8.14.28,16.33-1.28,24.34,1C120.83,241.88,108.59,241.93,96.39,242Z"/></svg>