<?xml version="1.0" encoding="utf-8"?>
<!-- Generator: Adobe Illustrator 24.1.1, SVG Export Plug-In . SVG Version: 6.00 Build 0)  -->
<svg version="1.1" id="Capa_1" xmlns="http://www.w3.org/2000/svg" xmlns:xlink="http://www.w3.org/1999/xlink" x="0px" y="0px"
	 viewBox="0 0 514 223" style="enable-background:new 0 0 514 223;" xml:space="preserve">
<style type="text/css">
	.st0{opacity:0.5;}
	.st1{fill:#B0AFAF;}
	.st2{fill:#262424;}
	.st3{fill-rule:evenodd;clip-rule:evenodd;fill:#262424;}
</style>
<g>
	<g>
		<g class="st0">
			<path class="st1" d="M67.28,175.72c0-3.19-0.59-4.49-1.36-6.21c-0.41-0.94-8.33-13.95-10.4-17.02c-1.48-2.19-2.95-3.67-4.08-4.32
				c-0.77-0.41-1.77-0.77-2.48-0.77c-0.47,0-0.89-0.12-0.89-0.53c0-0.35,0.42-0.53,1.12-0.53c1.06,0,5.5,0.18,7.45,0.18
				c1.24,0,3.66-0.18,6.32-0.18c0.59,0,0.89,0.18,0.89,0.53c0,0.35-0.41,0.41-1.3,0.65c-0.53,0.12-0.83,0.59-0.83,1.06
				c0,0.47,0.3,1.18,0.71,2.01c0.83,1.77,9.1,16.02,10.05,17.67c0.59-1.42,8.04-14.42,8.86-16.25c0.59-1.3,0.83-2.31,0.83-3.07
				c0-0.59-0.24-1.24-1.24-1.48c-0.53-0.12-1.07-0.24-1.07-0.59c0-0.41,0.3-0.53,1-0.53c1.95,0,3.84,0.18,5.56,0.18
				c1.3,0,5.2-0.18,6.33-0.18c0.65,0,1.06,0.12,1.06,0.47c0,0.41-0.47,0.59-1.12,0.59c-0.59,0-1.71,0.24-2.6,0.71
				c-1.24,0.59-1.89,1.3-3.19,2.89c-1.95,2.37-10.23,16.26-11.29,18.8c-0.89,2.13-0.89,3.96-0.89,5.91v4.85c0,0.95,0,3.43,0.18,5.91
				c0.12,1.71,0.65,3.01,2.42,3.25c0.83,0.12,2.13,0.23,2.95,0.23c0.65,0,0.94,0.18,0.94,0.47c0,0.41-0.47,0.59-1.24,0.59
				c-3.73,0-7.45-0.18-9.04-0.18c-1.48,0-5.2,0.18-7.39,0.18c-0.83,0-1.3-0.12-1.3-0.59c0-0.3,0.3-0.47,0.95-0.47
				c0.83,0,1.54-0.12,2.07-0.23c1.18-0.24,1.71-1.54,1.83-3.25c0.18-2.48,0.18-4.97,0.18-5.91V175.72z"/>
			<path class="st1" d="M108.53,175.96c-0.3,0-0.41,0.12-0.53,0.47l-3.19,8.1c-0.59,1.47-0.88,2.9-0.88,3.6
				c0,1.06,0.53,1.83,2.36,1.83h0.89c0.71,0,0.89,0.12,0.89,0.47c0,0.47-0.36,0.59-1,0.59c-1.89,0-4.43-0.18-6.27-0.18
				c-0.65,0-3.9,0.18-6.97,0.18c-0.77,0-1.12-0.12-1.12-0.59c0-0.36,0.24-0.47,0.71-0.47c0.53,0,1.36-0.06,1.83-0.12
				c2.72-0.36,3.84-2.36,5.02-5.32l14.84-36.65c0.71-1.71,1.06-2.36,1.66-2.36c0.53,0,0.89,0.53,1.48,1.89
				c1.42,3.25,10.88,26.89,14.66,35.88c2.25,5.32,3.96,6.15,5.2,6.44c0.89,0.18,1.77,0.23,2.48,0.23c0.47,0,0.77,0.06,0.77,0.47
				c0,0.47-0.53,0.59-2.72,0.59c-2.13,0-6.44,0-11.17-0.12c-1.06-0.06-1.77-0.06-1.77-0.47c0-0.36,0.24-0.47,0.83-0.53
				c0.41-0.12,0.83-0.65,0.53-1.36l-4.73-12.18c-0.12-0.29-0.29-0.41-0.59-0.41H108.53z M120.59,173.01c0.29,0,0.35-0.18,0.29-0.36
				l-5.32-14.54c-0.06-0.24-0.12-0.53-0.29-0.53c-0.18,0-0.3,0.29-0.35,0.53l-5.44,14.48c-0.06,0.24,0,0.42,0.24,0.42H120.59z"/>
			<path class="st1" d="M155.52,185.42c-5.79-5.08-7.33-11.7-7.33-17.44c0-4.02,1.24-10.99,6.92-16.19
				c4.25-3.9,9.87-6.26,18.68-6.26c3.67,0,5.85,0.24,8.57,0.59c2.25,0.3,4.14,0.83,5.91,1c0.65,0.06,0.89,0.36,0.89,0.71
				c0,0.47-0.18,1.18-0.29,3.25c-0.12,1.95-0.06,5.2-0.18,6.38c-0.06,0.89-0.18,1.36-0.71,1.36c-0.47,0-0.59-0.47-0.59-1.3
				c-0.06-1.83-0.83-3.9-2.31-5.44c-1.95-2.07-6.56-3.67-12-3.67c-5.14,0-8.51,1.3-11.11,3.67c-4.31,3.96-5.44,9.58-5.44,15.31
				c0,14.07,10.7,21.04,18.62,21.04c5.26,0,8.45-0.59,10.82-3.31c1-1.12,1.77-2.84,2.01-3.9c0.18-0.94,0.3-1.18,0.77-1.18
				c0.41,0,0.53,0.42,0.53,0.89c0,0.71-0.71,5.85-1.3,7.86c-0.29,1-0.53,1.3-1.54,1.71c-2.36,0.95-6.86,1.36-10.64,1.36
				C167.7,191.86,160.9,190.08,155.52,185.42z"/>
			<path class="st1" d="M239.33,165.14c0.18,0,0.36-0.12,0.36-0.41v-1.24c0-8.99,0-10.64-0.12-12.53c-0.12-2.01-0.59-2.96-2.54-3.37
				c-0.47-0.12-1.48-0.18-2.3-0.18c-0.65,0-1.01-0.12-1.01-0.53c0-0.41,0.41-0.53,1.24-0.53c3.19,0,6.92,0.18,8.51,0.18
				c1.42,0,5.14-0.18,7.45-0.18c0.83,0,1.24,0.12,1.24,0.53c0,0.41-0.36,0.53-1.06,0.53c-0.47,0-1,0.06-1.71,0.18
				c-1.6,0.29-2.07,1.3-2.19,3.37c-0.12,1.89-0.12,3.54-0.12,12.53v10.4c0,5.44,0,10.11,0.29,12.65c0.18,1.65,0.53,2.95,2.31,3.19
				c0.83,0.12,2.13,0.23,3.01,0.23c0.65,0,0.95,0.18,0.95,0.47c0,0.41-0.47,0.59-1.18,0.59c-3.84,0-7.57-0.18-9.22-0.18
				c-1.36,0-5.08,0.18-7.39,0.18c-0.83,0-1.24-0.18-1.24-0.59c0-0.3,0.24-0.47,0.95-0.47c0.89,0,1.6-0.12,2.13-0.23
				c1.18-0.24,1.48-1.54,1.71-3.25c0.3-2.48,0.3-7.15,0.3-12.59v-5.2c0-0.23-0.18-0.35-0.36-0.35h-22.58
				c-0.18,0-0.36,0.06-0.36,0.35v5.2c0,5.44,0,10.11,0.29,12.65c0.18,1.65,0.53,2.95,2.31,3.19c0.83,0.12,2.13,0.23,3.01,0.23
				c0.65,0,0.95,0.18,0.95,0.47c0,0.41-0.47,0.59-1.18,0.59c-3.84,0-7.57-0.18-9.22-0.18c-1.36,0-5.08,0.18-7.45,0.18
				c-0.77,0-1.18-0.18-1.18-0.59c0-0.3,0.24-0.47,0.95-0.47c0.89,0,1.59-0.12,2.13-0.23c1.18-0.24,1.48-1.54,1.71-3.25
				c0.3-2.48,0.3-7.15,0.3-12.59v-10.4c0-8.99,0-10.64-0.12-12.53c-0.12-2.01-0.59-2.96-2.54-3.37c-0.47-0.12-1.48-0.18-2.31-0.18
				c-0.65,0-1-0.12-1-0.53c0-0.41,0.41-0.53,1.24-0.53c3.19,0,6.92,0.18,8.51,0.18c1.42,0,5.14-0.18,7.45-0.18
				c0.83,0,1.24,0.12,1.24,0.53c0,0.41-0.35,0.53-1.06,0.53c-0.47,0-1,0.06-1.71,0.18c-1.6,0.29-2.07,1.3-2.19,3.37
				c-0.12,1.89-0.12,3.54-0.12,12.53v1.24c0,0.3,0.18,0.41,0.36,0.41H239.33z"/>
			<path class="st1" d="M273.55,163.49c0-8.99,0-10.64-0.12-12.53c-0.12-2.01-0.59-2.96-2.54-3.37c-0.47-0.12-1.48-0.18-2.3-0.18
				c-0.65,0-1-0.12-1-0.53c0-0.41,0.41-0.53,1.3-0.53c1.6,0,3.31,0.06,4.79,0.06c1.54,0.06,2.9,0.12,3.72,0.12
				c1.89,0,13.65,0,14.78-0.06c1.12-0.12,2.07-0.24,2.54-0.35c0.29-0.06,0.65-0.24,0.95-0.24c0.3,0,0.35,0.24,0.35,0.53
				c0,0.41-0.29,1.12-0.47,3.84c-0.06,0.59-0.18,3.19-0.3,3.9c-0.06,0.3-0.18,0.65-0.59,0.65c-0.41,0-0.53-0.3-0.53-0.83
				c0-0.42-0.06-1.42-0.35-2.13c-0.41-1.06-1-1.77-3.96-2.13c-1.01-0.12-7.21-0.24-8.39-0.24c-0.29,0-0.41,0.18-0.41,0.59v14.95
				c0,0.41,0.06,0.65,0.41,0.65c1.3,0,8.1,0,9.46-0.12c1.42-0.12,2.31-0.3,2.84-0.89c0.41-0.47,0.65-0.77,0.94-0.77
				c0.24,0,0.42,0.12,0.42,0.47c0,0.36-0.24,1.3-0.47,4.32c-0.06,1.18-0.24,3.55-0.24,3.96c0,0.47,0,1.12-0.53,1.12
				c-0.41,0-0.53-0.24-0.53-0.53c-0.06-0.59-0.06-1.36-0.24-2.13c-0.29-1.18-1.12-2.07-3.31-2.3c-1.12-0.12-6.97-0.18-8.39-0.18
				c-0.29,0-0.35,0.24-0.35,0.59v4.67c0,2.01-0.06,7.45,0,9.16c0.12,4.08,1.06,4.96,7.09,4.96c1.54,0,4.02,0,5.56-0.71
				c1.54-0.71,2.24-1.95,2.66-4.38c0.12-0.65,0.24-0.88,0.65-0.88c0.47,0,0.47,0.47,0.47,1.06c0,1.36-0.47,5.38-0.77,6.56
				c-0.41,1.54-0.95,1.54-3.19,1.54c-4.43,0-7.68-0.12-10.23-0.18c-2.54-0.12-4.37-0.18-6.15-0.18c-0.65,0-1.95,0-3.37,0.06
				c-1.36,0-2.9,0.12-4.08,0.12c-0.77,0-1.18-0.18-1.18-0.59c0-0.3,0.24-0.47,0.95-0.47c0.89,0,1.6-0.12,2.13-0.23
				c1.18-0.24,1.48-1.54,1.71-3.25c0.29-2.48,0.29-7.15,0.29-12.59V163.49z"/>
			<path class="st1" d="M325.38,173.89c0,7.57,0,11.64,1.24,12.71c1,0.89,2.54,1.3,7.15,1.3c3.13,0,5.44-0.06,6.92-1.66
				c0.71-0.77,1.42-2.42,1.54-3.55c0.06-0.53,0.18-0.89,0.65-0.89c0.41,0,0.47,0.29,0.47,1c0,0.65-0.41,5.08-0.89,6.8
				c-0.35,1.3-0.65,1.59-3.72,1.59c-4.25,0-7.33-0.12-9.99-0.18c-2.66-0.12-4.79-0.18-7.21-0.18c-0.65,0-1.95,0-3.37,0.06
				c-1.36,0-2.9,0.12-4.08,0.12c-0.77,0-1.18-0.18-1.18-0.59c0-0.3,0.24-0.47,0.95-0.47c0.89,0,1.6-0.12,2.13-0.23
				c1.18-0.24,1.48-1.54,1.71-3.25c0.3-2.48,0.3-7.15,0.3-12.59v-10.4c0-8.99,0-10.64-0.12-12.53c-0.12-2.01-0.59-2.96-2.54-3.37
				c-0.47-0.12-1.18-0.18-1.95-0.18c-0.65,0-1.01-0.12-1.01-0.53c0-0.41,0.41-0.53,1.3-0.53c2.78,0,6.5,0.18,8.1,0.18
				c1.42,0,5.73-0.18,8.04-0.18c0.83,0,1.24,0.12,1.24,0.53c0,0.41-0.35,0.53-1.06,0.53c-0.65,0-1.6,0.06-2.3,0.18
				c-1.6,0.29-2.07,1.3-2.19,3.37c-0.12,1.89-0.12,3.54-0.12,12.53V173.89z"/>
			<path class="st1" d="M360.84,163.49c0-8.99,0-10.64-0.12-12.53c-0.12-2.01-0.71-3.02-2.01-3.31c-0.65-0.18-1.42-0.24-2.13-0.24
				c-0.59,0-0.95-0.12-0.95-0.59c0-0.35,0.47-0.47,1.42-0.47c2.25,0,5.97,0.18,7.68,0.18c1.48,0,4.96-0.18,7.21-0.18
				c0.77,0,1.24,0.12,1.24,0.47c0,0.47-0.36,0.59-0.95,0.59c-0.59,0-1.06,0.06-1.77,0.18c-1.59,0.29-2.07,1.3-2.19,3.37
				c-0.12,1.89-0.12,3.54-0.12,12.53v10.4c0,5.73,0,10.4,0.24,12.94c0.18,1.6,0.59,2.66,2.36,2.9c0.83,0.12,2.13,0.23,3.01,0.23
				c0.65,0,0.95,0.18,0.95,0.47c0,0.41-0.47,0.59-1.12,0.59c-3.9,0-7.63-0.18-9.22-0.18c-1.36,0-5.08,0.18-7.45,0.18
				c-0.77,0-1.18-0.18-1.18-0.59c0-0.3,0.24-0.47,0.95-0.47c0.89,0,1.6-0.12,2.13-0.23c1.18-0.24,1.54-1.24,1.71-2.96
				c0.3-2.48,0.3-7.15,0.3-12.88V163.49z"/>
			<path class="st1" d="M397.96,182.99c0.12,4.61,0.88,6.15,2.07,6.56c1,0.36,2.13,0.41,3.07,0.41c0.65,0,1,0.12,1,0.47
				c0,0.47-0.53,0.59-1.36,0.59c-3.84,0-6.21-0.18-7.33-0.18c-0.53,0-3.31,0.18-6.38,0.18c-0.77,0-1.3-0.06-1.3-0.59
				c0-0.36,0.36-0.47,0.95-0.47c0.77,0,1.83-0.06,2.66-0.3c1.54-0.47,1.77-2.18,1.83-7.33l0.53-34.81c0-1.18,0.18-2.01,0.77-2.01
				c0.65,0,1.18,0.77,2.19,1.83c0.71,0.77,9.69,10.23,18.32,18.79c4.02,4.02,12,12.53,13,13.48h0.3l-0.59-26.54
				c-0.06-3.61-0.59-4.73-2.01-5.32c-0.89-0.36-2.3-0.36-3.13-0.36c-0.71,0-0.95-0.18-0.95-0.53c0-0.47,0.65-0.53,1.54-0.53
				c3.07,0,5.91,0.18,7.15,0.18c0.65,0,2.9-0.18,5.79-0.18c0.77,0,1.36,0.06,1.36,0.53c0,0.35-0.35,0.53-1.06,0.53
				c-0.59,0-1.06,0-1.77,0.18c-1.65,0.47-2.13,1.71-2.19,5.02l-0.65,37.29c0,1.3-0.24,1.83-0.77,1.83c-0.65,0-1.36-0.65-2.01-1.3
				c-3.72-3.55-11.29-11.29-17.43-17.38c-6.44-6.39-13-13.6-14.07-14.72h-0.18L397.96,182.99z"/>
			<path class="st1" d="M457.71,163.49c0-8.99,0-10.64-0.12-12.53c-0.12-2.01-0.71-3.02-2.01-3.31c-0.65-0.18-1.42-0.24-2.13-0.24
				c-0.59,0-0.95-0.12-0.95-0.59c0-0.35,0.47-0.47,1.42-0.47c2.25,0,5.97,0.18,7.68,0.18c1.48,0,4.96-0.18,7.21-0.18
				c0.77,0,1.24,0.12,1.24,0.47c0,0.47-0.35,0.59-0.95,0.59c-0.59,0-1.06,0.06-1.77,0.18c-1.59,0.29-2.07,1.3-2.19,3.37
				c-0.12,1.89-0.12,3.54-0.12,12.53v10.4c0,5.73,0,10.4,0.24,12.94c0.18,1.6,0.59,2.66,2.36,2.9c0.83,0.12,2.13,0.23,3.01,0.23
				c0.65,0,0.95,0.18,0.95,0.47c0,0.41-0.47,0.59-1.12,0.59c-3.9,0-7.63-0.18-9.22-0.18c-1.36,0-5.08,0.18-7.45,0.18
				c-0.77,0-1.18-0.18-1.18-0.59c0-0.3,0.24-0.47,0.95-0.47c0.89,0,1.6-0.12,2.13-0.23c1.18-0.24,1.54-1.24,1.71-2.96
				c0.3-2.48,0.3-7.15,0.3-12.88V163.49z"/>
		</g>
		<g>
			<g>
				<path class="st2" d="M64.45,175.72c0-3.19-0.59-4.49-1.36-6.21c-0.41-0.94-8.33-13.95-10.4-17.02
					c-1.48-2.19-2.95-3.67-4.08-4.32c-0.77-0.41-1.77-0.77-2.48-0.77c-0.47,0-0.89-0.12-0.89-0.53c0-0.35,0.42-0.53,1.12-0.53
					c1.06,0,5.5,0.18,7.45,0.18c1.24,0,3.66-0.18,6.32-0.18c0.59,0,0.89,0.18,0.89,0.53c0,0.35-0.41,0.41-1.3,0.65
					c-0.53,0.12-0.83,0.59-0.83,1.06c0,0.47,0.3,1.18,0.71,2.01c0.83,1.77,9.1,16.02,10.05,17.67c0.59-1.42,8.04-14.42,8.86-16.25
					c0.59-1.3,0.83-2.31,0.83-3.07c0-0.59-0.24-1.24-1.24-1.48c-0.53-0.12-1.07-0.24-1.07-0.59c0-0.41,0.3-0.53,1-0.53
					c1.95,0,3.84,0.18,5.56,0.18c1.3,0,5.2-0.18,6.33-0.18c0.65,0,1.06,0.12,1.06,0.47c0,0.41-0.47,0.59-1.12,0.59
					c-0.59,0-1.71,0.24-2.6,0.71c-1.24,0.59-1.89,1.3-3.19,2.89c-1.95,2.37-10.23,16.26-11.29,18.8c-0.89,2.13-0.89,3.96-0.89,5.91
					v4.85c0,0.95,0,3.43,0.18,5.91c0.12,1.71,0.65,3.01,2.42,3.25c0.83,0.12,2.13,0.23,2.95,0.23c0.65,0,0.94,0.18,0.94,0.47
					c0,0.41-0.47,0.59-1.24,0.59c-3.73,0-7.45-0.18-9.04-0.18c-1.48,0-5.2,0.18-7.39,0.18c-0.83,0-1.3-0.12-1.3-0.59
					c0-0.3,0.3-0.47,0.95-0.47c0.83,0,1.54-0.12,2.07-0.23c1.18-0.24,1.71-1.54,1.83-3.25c0.18-2.48,0.18-4.97,0.18-5.91V175.72z"/>
				<path class="st2" d="M105.7,175.96c-0.3,0-0.41,0.12-0.53,0.47l-3.19,8.1c-0.59,1.47-0.88,2.9-0.88,3.6
					c0,1.06,0.53,1.83,2.36,1.83h0.89c0.71,0,0.89,0.12,0.89,0.47c0,0.47-0.36,0.59-1,0.59c-1.89,0-4.43-0.18-6.27-0.18
					c-0.65,0-3.9,0.18-6.97,0.18c-0.77,0-1.12-0.12-1.12-0.59c0-0.36,0.24-0.47,0.71-0.47c0.53,0,1.36-0.06,1.83-0.12
					c2.72-0.36,3.84-2.36,5.02-5.32l14.84-36.65c0.71-1.71,1.06-2.36,1.66-2.36c0.53,0,0.89,0.53,1.48,1.89
					c1.42,3.25,10.88,26.89,14.66,35.88c2.25,5.32,3.96,6.15,5.2,6.44c0.89,0.18,1.77,0.23,2.48,0.23c0.47,0,0.77,0.06,0.77,0.47
					c0,0.47-0.53,0.59-2.72,0.59c-2.13,0-6.44,0-11.17-0.12c-1.06-0.06-1.77-0.06-1.77-0.47c0-0.36,0.24-0.47,0.83-0.53
					c0.41-0.12,0.83-0.65,0.53-1.36l-4.73-12.18c-0.12-0.29-0.29-0.41-0.59-0.41H105.7z M117.76,173.01c0.29,0,0.35-0.18,0.29-0.36
					l-5.32-14.54c-0.06-0.24-0.12-0.53-0.29-0.53c-0.18,0-0.3,0.29-0.35,0.53l-5.44,14.48c-0.06,0.24,0,0.42,0.24,0.42H117.76z"/>
				<path class="st2" d="M152.69,185.42c-5.79-5.08-7.33-11.7-7.33-17.44c0-4.02,1.24-10.99,6.92-16.19
					c4.25-3.9,9.87-6.26,18.68-6.26c3.67,0,5.85,0.24,8.57,0.59c2.25,0.3,4.14,0.83,5.91,1c0.65,0.06,0.89,0.36,0.89,0.71
					c0,0.47-0.18,1.18-0.29,3.25c-0.12,1.95-0.06,5.2-0.18,6.38c-0.06,0.89-0.18,1.36-0.71,1.36c-0.47,0-0.59-0.47-0.59-1.3
					c-0.06-1.83-0.83-3.9-2.31-5.44c-1.95-2.07-6.56-3.67-12-3.67c-5.14,0-8.51,1.3-11.11,3.67c-4.31,3.96-5.44,9.58-5.44,15.31
					c0,14.07,10.7,21.04,18.62,21.04c5.26,0,8.45-0.59,10.82-3.31c1-1.12,1.77-2.84,2.01-3.9c0.18-0.94,0.3-1.18,0.77-1.18
					c0.41,0,0.53,0.42,0.53,0.89c0,0.71-0.71,5.85-1.3,7.86c-0.29,1-0.53,1.3-1.54,1.71c-2.36,0.95-6.86,1.36-10.64,1.36
					C164.86,191.86,158.06,190.08,152.69,185.42z"/>
				<path class="st2" d="M236.49,165.14c0.18,0,0.36-0.12,0.36-0.41v-1.24c0-8.99,0-10.64-0.12-12.53
					c-0.12-2.01-0.59-2.96-2.54-3.37c-0.47-0.12-1.48-0.18-2.3-0.18c-0.65,0-1.01-0.12-1.01-0.53c0-0.41,0.41-0.53,1.24-0.53
					c3.19,0,6.91,0.18,8.51,0.18c1.42,0,5.14-0.18,7.45-0.18c0.83,0,1.24,0.12,1.24,0.53c0,0.41-0.36,0.53-1.06,0.53
					c-0.47,0-1,0.06-1.71,0.18c-1.6,0.29-2.07,1.3-2.19,3.37c-0.12,1.89-0.12,3.54-0.12,12.53v10.4c0,5.44,0,10.11,0.29,12.65
					c0.18,1.65,0.53,2.95,2.31,3.19c0.83,0.12,2.13,0.23,3.01,0.23c0.65,0,0.95,0.18,0.95,0.47c0,0.41-0.47,0.59-1.18,0.59
					c-3.84,0-7.57-0.18-9.22-0.18c-1.36,0-5.08,0.18-7.39,0.18c-0.83,0-1.24-0.18-1.24-0.59c0-0.3,0.24-0.47,0.95-0.47
					c0.89,0,1.6-0.12,2.13-0.23c1.18-0.24,1.48-1.54,1.71-3.25c0.3-2.48,0.3-7.15,0.3-12.59v-5.2c0-0.23-0.18-0.35-0.36-0.35h-22.58
					c-0.18,0-0.36,0.06-0.36,0.35v5.2c0,5.44,0,10.11,0.29,12.65c0.18,1.65,0.53,2.95,2.31,3.19c0.83,0.12,2.13,0.23,3.01,0.23
					c0.65,0,0.95,0.18,0.95,0.47c0,0.41-0.47,0.59-1.18,0.59c-3.84,0-7.57-0.18-9.22-0.18c-1.36,0-5.08,0.18-7.45,0.18
					c-0.77,0-1.18-0.18-1.18-0.59c0-0.3,0.24-0.47,0.95-0.47c0.89,0,1.59-0.12,2.13-0.23c1.18-0.24,1.48-1.54,1.71-3.25
					c0.3-2.48,0.3-7.15,0.3-12.59v-10.4c0-8.99,0-10.64-0.12-12.53c-0.12-2.01-0.59-2.96-2.54-3.37c-0.47-0.12-1.48-0.18-2.31-0.18
					c-0.65,0-1-0.12-1-0.53c0-0.41,0.41-0.53,1.24-0.53c3.19,0,6.92,0.18,8.51,0.18c1.42,0,5.14-0.18,7.45-0.18
					c0.83,0,1.24,0.12,1.24,0.53c0,0.41-0.35,0.53-1.06,0.53c-0.47,0-1,0.06-1.71,0.18c-1.6,0.29-2.07,1.3-2.19,3.37
					c-0.12,1.89-0.12,3.54-0.12,12.53v1.24c0,0.3,0.18,0.41,0.36,0.41H236.49z"/>
				<path class="st2" d="M270.71,163.49c0-8.99,0-10.64-0.12-12.53c-0.12-2.01-0.59-2.96-2.54-3.37c-0.47-0.12-1.48-0.18-2.3-0.18
					c-0.65,0-1-0.12-1-0.53c0-0.41,0.41-0.53,1.3-0.53c1.6,0,3.31,0.06,4.79,0.06c1.54,0.06,2.9,0.12,3.72,0.12
					c1.89,0,13.65,0,14.78-0.06c1.12-0.12,2.07-0.24,2.54-0.35c0.29-0.06,0.65-0.24,0.95-0.24c0.3,0,0.35,0.24,0.35,0.53
					c0,0.41-0.29,1.12-0.47,3.84c-0.06,0.59-0.18,3.19-0.3,3.9c-0.06,0.3-0.18,0.65-0.59,0.65c-0.41,0-0.53-0.3-0.53-0.83
					c0-0.42-0.06-1.42-0.35-2.13c-0.41-1.06-1-1.77-3.96-2.13c-1.01-0.12-7.21-0.24-8.39-0.24c-0.29,0-0.41,0.18-0.41,0.59v14.95
					c0,0.41,0.06,0.65,0.41,0.65c1.3,0,8.1,0,9.46-0.12c1.42-0.12,2.31-0.3,2.84-0.89c0.41-0.47,0.65-0.77,0.94-0.77
					c0.24,0,0.42,0.12,0.42,0.47c0,0.36-0.24,1.3-0.47,4.32c-0.06,1.18-0.24,3.55-0.24,3.96c0,0.47,0,1.12-0.53,1.12
					c-0.42,0-0.53-0.24-0.53-0.53c-0.06-0.59-0.06-1.36-0.24-2.13c-0.29-1.18-1.12-2.07-3.31-2.3c-1.12-0.12-6.97-0.18-8.39-0.18
					c-0.29,0-0.35,0.24-0.35,0.59v4.67c0,2.01-0.06,7.45,0,9.16c0.12,4.08,1.06,4.96,7.09,4.96c1.54,0,4.02,0,5.56-0.71
					c1.54-0.71,2.24-1.95,2.66-4.38c0.12-0.65,0.24-0.88,0.65-0.88c0.47,0,0.47,0.47,0.47,1.06c0,1.36-0.47,5.38-0.77,6.56
					c-0.41,1.54-0.95,1.54-3.19,1.54c-4.43,0-7.68-0.12-10.23-0.18c-2.54-0.12-4.37-0.18-6.15-0.18c-0.65,0-1.95,0-3.37,0.06
					c-1.36,0-2.9,0.12-4.08,0.12c-0.77,0-1.18-0.18-1.18-0.59c0-0.3,0.24-0.47,0.95-0.47c0.89,0,1.6-0.12,2.13-0.23
					c1.18-0.24,1.48-1.54,1.71-3.25c0.29-2.48,0.29-7.15,0.29-12.59V163.49z"/>
				<path class="st2" d="M322.55,173.89c0,7.57,0,11.64,1.24,12.71c1,0.89,2.54,1.3,7.15,1.3c3.13,0,5.44-0.06,6.92-1.66
					c0.71-0.77,1.42-2.42,1.54-3.55c0.06-0.53,0.18-0.89,0.65-0.89c0.41,0,0.47,0.29,0.47,1c0,0.65-0.41,5.08-0.89,6.8
					c-0.35,1.3-0.65,1.59-3.72,1.59c-4.25,0-7.33-0.12-9.99-0.18c-2.66-0.12-4.79-0.18-7.21-0.18c-0.65,0-1.95,0-3.37,0.06
					c-1.36,0-2.9,0.12-4.08,0.12c-0.77,0-1.18-0.18-1.18-0.59c0-0.3,0.24-0.47,0.95-0.47c0.89,0,1.6-0.12,2.13-0.23
					c1.18-0.24,1.48-1.54,1.71-3.25c0.3-2.48,0.3-7.15,0.3-12.59v-10.4c0-8.99,0-10.64-0.12-12.53c-0.12-2.01-0.59-2.96-2.54-3.37
					c-0.47-0.12-1.18-0.18-1.95-0.18c-0.65,0-1.01-0.12-1.01-0.53c0-0.41,0.41-0.53,1.3-0.53c2.78,0,6.5,0.18,8.1,0.18
					c1.42,0,5.73-0.18,8.04-0.18c0.83,0,1.24,0.12,1.24,0.53c0,0.41-0.35,0.53-1.06,0.53c-0.65,0-1.6,0.06-2.3,0.18
					c-1.6,0.29-2.07,1.3-2.19,3.37c-0.12,1.89-0.12,3.54-0.12,12.53V173.89z"/>
				<path class="st2" d="M358.01,163.49c0-8.99,0-10.64-0.12-12.53c-0.12-2.01-0.71-3.02-2.01-3.31c-0.65-0.18-1.42-0.24-2.13-0.24
					c-0.59,0-0.95-0.12-0.95-0.59c0-0.35,0.47-0.47,1.42-0.47c2.25,0,5.97,0.18,7.68,0.18c1.48,0,4.96-0.18,7.21-0.18
					c0.77,0,1.24,0.12,1.24,0.47c0,0.47-0.36,0.59-0.95,0.59c-0.59,0-1.06,0.06-1.77,0.18c-1.59,0.29-2.07,1.3-2.19,3.37
					c-0.12,1.89-0.12,3.54-0.12,12.53v10.4c0,5.73,0,10.4,0.24,12.94c0.18,1.6,0.59,2.66,2.36,2.9c0.83,0.12,2.13,0.23,3.01,0.23
					c0.65,0,0.95,0.18,0.95,0.47c0,0.41-0.47,0.59-1.12,0.59c-3.9,0-7.63-0.18-9.22-0.18c-1.36,0-5.08,0.18-7.45,0.18
					c-0.77,0-1.18-0.18-1.18-0.59c0-0.3,0.24-0.47,0.95-0.47c0.89,0,1.6-0.12,2.13-0.23c1.18-0.24,1.54-1.24,1.71-2.96
					c0.3-2.48,0.3-7.15,0.3-12.88V163.49z"/>
				<path class="st2" d="M395.12,182.99c0.12,4.61,0.88,6.15,2.07,6.56c1,0.36,2.13,0.41,3.07,0.41c0.65,0,1,0.12,1,0.47
					c0,0.47-0.53,0.59-1.36,0.59c-3.84,0-6.21-0.18-7.33-0.18c-0.53,0-3.31,0.18-6.38,0.18c-0.77,0-1.3-0.06-1.3-0.59
					c0-0.36,0.36-0.47,0.95-0.47c0.77,0,1.83-0.06,2.66-0.3c1.54-0.47,1.77-2.18,1.83-7.33l0.53-34.81c0-1.18,0.18-2.01,0.77-2.01
					c0.65,0,1.18,0.77,2.19,1.83c0.71,0.77,9.69,10.23,18.32,18.79c4.02,4.02,12,12.53,13,13.48h0.3l-0.59-26.54
					c-0.06-3.61-0.59-4.73-2.01-5.32c-0.89-0.36-2.3-0.36-3.13-0.36c-0.71,0-0.95-0.18-0.95-0.53c0-0.47,0.65-0.53,1.54-0.53
					c3.07,0,5.91,0.18,7.15,0.18c0.65,0,2.9-0.18,5.79-0.18c0.77,0,1.36,0.06,1.36,0.53c0,0.35-0.35,0.53-1.06,0.53
					c-0.59,0-1.06,0-1.77,0.18c-1.65,0.47-2.13,1.71-2.19,5.02l-0.65,37.29c0,1.3-0.24,1.83-0.77,1.83c-0.65,0-1.36-0.65-2.01-1.3
					c-3.72-3.55-11.29-11.29-17.43-17.38c-6.44-6.39-13-13.6-14.07-14.72h-0.18L395.12,182.99z"/>
				<path class="st2" d="M454.88,163.49c0-8.99,0-10.64-0.12-12.53c-0.12-2.01-0.71-3.02-2.01-3.31c-0.65-0.18-1.42-0.24-2.13-0.24
					c-0.59,0-0.95-0.12-0.95-0.59c0-0.35,0.47-0.47,1.42-0.47c2.25,0,5.97,0.18,7.68,0.18c1.48,0,4.96-0.18,7.21-0.18
					c0.77,0,1.24,0.12,1.24,0.47c0,0.47-0.35,0.59-0.95,0.59c-0.59,0-1.06,0.06-1.77,0.18c-1.59,0.29-2.07,1.3-2.19,3.37
					c-0.12,1.89-0.12,3.54-0.12,12.53v10.4c0,5.73,0,10.4,0.24,12.94c0.18,1.6,0.59,2.66,2.36,2.9c0.83,0.12,2.13,0.23,3.01,0.23
					c0.65,0,0.95,0.18,0.95,0.47c0,0.41-0.47,0.59-1.12,0.59c-3.9,0-7.63-0.18-9.22-0.18c-1.36,0-5.08,0.18-7.45,0.18
					c-0.77,0-1.18-0.18-1.18-0.59c0-0.3,0.24-0.47,0.95-0.47c0.89,0,1.6-0.12,2.13-0.23c1.18-0.24,1.54-1.24,1.71-2.96
					c0.3-2.48,0.3-7.15,0.3-12.88V163.49z"/>
			</g>
		</g>
	</g>
	<path class="st2" d="M170.83,114.15c0-0.03-0.23-0.05-0.66-0.07c-0.43-0.02-1.07-0.04-1.89-0.05c-1.63-0.03-3.97-0.06-6.8-0.07
		c-5.66-0.03,1.24-0.04-6.67-0.03c-15.82,0.05-32.7,0.09-36.97,0.11c-0.34-0.04-0.83-0.02-0.83-0.02s-0.31,0-0.9,0
		c-0.95-0.05-1.68-0.17-1.9,0c-4.05,0-12.36,0-21.69,0c-1.09-0.35-2.47-1.05-2.68-1.18c-0.28-0.16-1.62-1.06-2.13-0.78
		c-0.52,0.28-0.02,1.4-0.02,1.4s-0.45-0.16-1.25-0.23c-0.33-0.03-0.66,0.13-0.92,0.33c-1.66-1.15-3.32-0.93-4.57-0.43
		c-0.8-0.34-1.75-0.75-3.5-1.21c-0.8-0.21-1.48-0.35-2.06-0.44c-0.01-0.01-0.03-0.02-0.04-0.04c-1.15-1.09-3.25-2.16-4.4-0.89
		c-0.69,0.75-0.36,1.98,0.02,2.85c-0.23,0.24-0.49,0.42-0.77,0.45c-0.38,0.05-0.72-0.19-0.99-0.55c-0.02-0.03-0.38-0.61-0.35-0.64
		c-1.56,1.48-0.66,2.91-0.66,2.91c-0.79,0.47-2.33-0.25-2.33-0.25c1.02-1.65-0.35-2.26-0.99-3c-0.64-0.73-0.37-1.71-0.37-1.71
		c-1.42,1-0.93,2.63-0.93,2.63c-1.85-0.62-3.08,1.75-4.19,2.76c-1.1,1.01-2.02,0.38-2.02,0.38s0.6,1.49,2.24,0.74
		c1.64-0.76,2.35-1.98,6.33-0.65c3,1,4.74-0.92,5.01-1.24c-1.18,2.11,0.23,3.32,2.06,3.32c0,0,0.81,0,2.26-1.35
		c1.55-1.42,3.05-2.07,4.23-2.35c2.81,1.73,4.8,0.75,5.81-0.09c0.73,0.57,2.15,0.41,2.15,0.41c-0.06,0.22-0.44,2.19,1.36,0.95
		c0.84-0.59,1.9-1.04,2.79-1.37h25.41c2.01-0.01,19.1-0.08,35.69-0.16c8.29-0.05,1.92-0.11,8.02-0.19c3.05-0.04,5.58-0.08,7.34-0.13
		c0.88-0.02,1.58-0.05,2.05-0.07C170.58,114.2,170.83,114.17,170.83,114.15z"/>
	<path class="st2" d="M341.65,114.39c0,0.02,0.23,0.05,0.67,0.07c0.43,0.02,1.07,0.04,1.89,0.05c1.63,0.03,3.97,0.06,6.8,0.07
		c5.67,0.03-1.24,0.04,6.67,0.03c15.82-0.05,32.7-0.09,36.97-0.11c0.34,0.04,0.83,0.02,0.83,0.02s0.31,0,0.9,0
		c0.95,0.05,1.68,0.17,1.9,0c4.05,0,12.36,0,21.69,0c1.09,0.34,2.47,1.05,2.68,1.18c0.28,0.16,1.62,1.06,2.13,0.78
		c0.51-0.28,0.02-1.4,0.02-1.4s0.45,0.16,1.25,0.23c0.33,0.03,0.66-0.13,0.92-0.33c1.66,1.15,3.33,0.93,4.58,0.43
		c0.8,0.34,1.75,0.75,3.5,1.21c0.8,0.21,1.48,0.35,2.07,0.44c0.01,0.01,0.03,0.03,0.04,0.03c1.15,1.09,3.25,2.16,4.4,0.89
		c0.69-0.75,0.36-1.98-0.02-2.85c0.23-0.24,0.49-0.42,0.77-0.46c0.38-0.05,0.72,0.19,0.99,0.55c0.03,0.03,0.38,0.62,0.35,0.64
		c1.56-1.48,0.66-2.91,0.66-2.91c0.79-0.47,2.33,0.25,2.33,0.25c-1.02,1.65,0.35,2.26,0.99,3c0.64,0.73,0.37,1.71,0.37,1.71
		c1.42-1,0.93-2.63,0.93-2.63c1.85,0.62,3.08-1.76,4.19-2.77c1.1-1.01,2.02-0.38,2.02-0.38s-0.6-1.49-2.24-0.73
		c-1.64,0.76-2.35,1.98-6.34,0.65c-3-1.01-4.74,0.92-5.01,1.24c1.18-2.11-0.23-3.32-2.06-3.32c0,0-0.81,0-2.26,1.35
		c-1.55,1.42-3.05,2.07-4.23,2.35c-2.81-1.72-4.8-0.75-5.81,0.09c-0.73-0.56-2.15-0.41-2.15-0.41c0.06-0.22,0.44-2.19-1.36-0.95
		c-0.84,0.59-1.9,1.05-2.79,1.37h-25.41c-2,0.01-19.1,0.08-35.69,0.16c-8.29,0.05-1.92,0.11-8.02,0.19
		c-3.05,0.04-5.58,0.08-7.34,0.13c-0.88,0.02-1.58,0.05-2.05,0.07C341.9,114.34,341.65,114.36,341.65,114.39z"/>
	<g>
		<path class="st2" d="M115.8,53.15l12.86-3.94l1.25,4.07l-8.55,2.61l2.8,9.16l7.45-2.28l1.25,4.07l-7.45,2.28l3.94,12.89
			l-4.32,1.32L115.8,53.15z"/>
		<path class="st2" d="M157.89,42.06l3.68-0.76l13.28,29.49l-4.42,0.91l-2.67-6.37l-6.02,1.25l0.07,6.91l-4.42,0.92L157.89,42.06z
			 M161.59,50.57l-0.09,0.02l0.15,11.65l4.42-0.91L161.59,50.57z"/>
		<path class="st2" d="M194.57,35.75l7.21-0.85c5.32-0.63,8.28,2.19,8.99,8.27c0.42,3.61-0.27,6.37-2.94,8.29l6.52,13.74l-4.75,0.56
			l-5.75-12.89l-2.68,0.32l1.58,13.39l-4.48,0.53L194.57,35.75z M200.71,49.22l2.55-0.3c3.12-0.37,3.4-2.19,3.03-5.31
			c-0.37-3.17-1.1-4.82-4.4-4.43l-2.33,0.27L200.71,49.22z"/>
		<path class="st2" d="M237.41,31.81l4.33-0.14l6.34,16.52l0.09,0l5.2-16.9l4.38-0.14l1.04,31.55l-4.51,0.15l-0.63-19.19l-0.09,0
			l-4.02,13.71l-2.26,0.07l-4.87-13.42l-0.09,0l0.63,19.19l-4.51,0.15L237.41,31.81z"/>
		<path class="st2" d="M291.05,31.7l3.76,0.17l5.54,31.87l-4.51-0.21l-1.01-6.84l-6.14-0.29l-1.65,6.72l-4.51-0.21L291.05,31.7z
			 M292.53,40.87l-0.09,0l-2.75,11.32l4.51,0.21L292.53,40.87z"/>
		<path class="st2" d="M339.14,60.64c-0.49,3.87-4.03,6.87-8.03,6.37c-3.42-0.43-7.17-2.6-6.45-8.32l2.17-17.24
			c0.51-4.09,3.85-6.85,8.19-6.3c4.13,0.52,6.81,4.03,6.26,8.38l-0.22,1.76l-4.48-0.56l0.19-1.5c0.22-1.76-0.65-3.39-2.36-3.6
			c-2.24-0.28-2.96,1.19-3.22,3.3l-2.01,16.01c-0.23,1.81,0.3,3.3,2.32,3.55c1.23,0.15,2.9-0.35,3.21-2.81l0.19-1.54l4.48,0.56
			L339.14,60.64z"/>
		<path class="st2" d="M369.57,40.99l4.42,0.9l-6.31,30.93l-4.42-0.9L369.57,40.99z"/>
		<path class="st2" d="M406.65,50.05l3.6,1.07l-2.29,32.27l-4.32-1.29l0.67-6.88l-5.89-1.76l-3.21,6.12l-4.32-1.29L406.65,50.05z
			 M405.87,59.31l-0.08-0.02l-5.39,10.32l4.32,1.29L405.87,59.31z"/>
	</g>
	<g>
		<g>
			<g>
				<path class="st2" d="M293.67,112.09l2.59-1.46v8.4h-1v-6.82l-1.59,0.95V112.09z"/>
				<path class="st2" d="M304.95,115.72l-0.02-0.02c-0.21,0.09-0.47,0.1-0.69,0.1c-1.4,0-2.29-1.22-2.29-2.44
					c0-1.51,1.11-2.58,2.47-2.58c1.44,0,2.58,0.95,2.58,2.5c0,0.75-0.25,1.33-1,2.5l-2.15,3.34h-1.2L304.95,115.72z M304.47,111.66
					c-0.89,0-1.52,0.64-1.52,1.62s0.63,1.64,1.52,1.64c0.82,0,1.52-0.59,1.52-1.64C306,112.23,305.3,111.66,304.47,111.66z"/>
				<path class="st2" d="M312.03,115.38v-4.52h3.95v0.93h-3.02v2.29c0.4-0.17,0.71-0.22,1.07-0.22c1.1,0,2.52,0.85,2.52,2.58
					c0,1.47-1.1,2.67-2.56,2.67c-1.26,0-1.99-0.51-2.56-1.44l0.83-0.55c0.35,0.7,0.94,1.1,1.65,1.1c0.72,0,1.64-0.53,1.64-1.77
					c0-1-0.75-1.72-1.69-1.72c-0.61,0-1.17,0.21-1.71,0.71L312.03,115.38z"/>
				<path class="st2" d="M324.41,117.01h-3.33v-0.44l4.13-5.89h0.2v5.45h0.92v0.88h-0.92v2.03h-1V117.01z M324.41,113.21h-0.02
					l-2.02,2.92h2.05V113.21z"/>
			</g>
		</g>
		<g>
			<g>
				<path class="st2" d="M187.67,110.98h2.56c1.91,0,3.75,1.63,3.75,3.87c0,2.23-1.78,3.93-3.99,3.93h-2.32V110.98z M189.98,117.85
					c1.74,0,2.95-1.34,2.95-3.06c0-1.66-1.33-2.89-3.04-2.89h-1.24v5.95H189.98z"/>
				<path class="st2" d="M198.85,110.98h4.03v0.92h-3.05v2.47h3.05v0.92h-3.05v2.55h3.05v0.92h-4.03V110.98z"/>
				<path class="st2" d="M211.41,113.21c-0.13-0.93-0.67-1.49-1.5-1.49c-1.11,0-1.4,0.73-1.4,1.26c0,0.58,0.37,0.95,1.14,1.24
					l0.98,0.37c1.24,0.46,1.82,1.19,1.82,2.14c0,1.26-1.01,2.17-2.5,2.17c-1.42,0-2.42-0.75-2.54-2.31h0.98
					c0.08,0.86,0.51,1.45,1.61,1.45c0.85,0,1.47-0.54,1.47-1.23c0-0.61-0.5-1-1.21-1.27l-1-0.39c-1.16-0.45-1.73-1.13-1.73-2.13
					c0-1.34,1.12-2.16,2.4-2.16c1.29,0,2.3,0.77,2.41,2.35H211.41z"/>
				<path class="st2" d="M217.23,110.98h2.56c1.91,0,3.75,1.63,3.75,3.87c0,2.23-1.78,3.93-3.99,3.93h-2.32V110.98z M219.54,117.85
					c1.75,0,2.96-1.34,2.96-3.06c0-1.66-1.33-2.89-3.04-2.89h-1.24v5.95H219.54z"/>
				<path class="st2" d="M228.41,110.98h4.03v0.92h-3.05v2.47h3.05v0.92h-3.05v2.55h3.05v0.92h-4.03V110.98z"/>
			</g>
		</g>
		<g>
			<path class="st3" d="M255.92,96.69c4.19,0,8.38,0.05,12.57-0.03c1.17-0.02,1.65,0.42,1.88,1.44c0.69,2.92-1.4,6.82-4.25,7.77
				c-0.69,0.23-0.91,0.54-0.9,1.23c0.03,2.12-0.01,4.23,0,6.34c0,0.72-0.01,1.32-1.01,1.29c-0.93-0.02-1.06-0.49-1.03-1.27
				c0.06-1.99,0.02-3.98,0.07-5.97c0.02-0.77-0.22-1.09-1.03-1.16c-3.81-0.33-7.07-1.95-10-4.32c-2.37-1.91-4.98-3.25-8.07-3.57
				c-0.69-0.07-1.39-0.27-1.95-0.75c-0.14-0.13-0.31-0.34-0.3-0.5c0.02-0.34,0.36-0.28,0.58-0.28c1.16-0.01,2.32-0.01,3.48-0.01
				c3.32,0,6.64,0,9.95,0C255.92,96.82,255.92,96.75,255.92,96.69z"/>
			<path class="st3" d="M274.69,102.21c-1.41,3.33-3.79,5.58-7.32,6.52c-0.48,0.13-1.09,0.7-1.5-0.06c-0.42-0.79,0-2.14,0.68-2.4
				c2.91-1.13,4.27-3.41,4.69-6.35c0.29-2.02-0.42-3.3-2.24-4.28c-1.85-0.98-3.89-1.39-5.9-1.89c-2.5-0.63-4.77-1.67-6.56-3.59
				c-2.16-2.32-2.7-5.96-1.27-8.42c1.43-2.47,4.65-3.76,7.55-3.04c1.84,0.46,3.09,1.55,3.56,3.42c0.17,0.68,0.4,1.24,1.05,1.59
				c0.52,0.27,0.76,0.77,0.72,1.35c-0.08,1.2-0.28,2.39-0.81,3.49c-0.4,0.84-1,0.95-1.69,0.36c-1-0.87-1.65-1.96-1.95-3.25
				c-0.15-0.67,0.06-1.24,0.62-1.64c0.61-0.43,0.53-0.92,0.24-1.5c-0.75-1.5-2.38-2.37-4.13-2.15c-1.79,0.22-3.08,1.5-3.45,3.43
				c-0.47,2.5,0.63,4.66,3.06,5.95c2.12,1.12,4.47,1.47,6.77,2c1.42,0.32,2.83,0.65,4.18,1.2c1.9,0.77,3.33,2,3.95,4.02
				c0.86,0.64,0.58,1.58,0.56,2.4C275.48,100.36,275.58,101.44,274.69,102.21z"/>
			<path class="st3" d="M261.71,114.15c-0.03,0.29,0.1,0.45,0.37,0.56c1.74,0.69,3.48,0.72,5.19-0.05c0.75-0.34,1.14-0.99,0.94-1.83
				c-0.19-0.81-0.84-0.96-1.56-0.86c-0.39,0.06-0.76,0.17-0.84-0.39c-0.07-0.49-0.2-1.05,0.45-1.26c1.66-0.54,3.34-0.75,4.95,0.12
				c1.45,0.79,1.57,2.84,0.29,4.33c-1.25,1.45-2.94,2.13-4.75,2.51c-2.76,0.58-5.37,0.27-7.62-1.61c-1.57-1.31-2.04-3.02-1.51-4.93
				c0.56-2.02,1.92-3.34,4-3.86c0.67-0.17,1.06,0.02,1.05,0.76c-0.01,0.93,0.09,1.77-1.04,2.37c-1.35,0.72-1.54,2.44-0.65,3.61
				C261.36,113.6,261.64,113.73,261.71,114.15z"/>
			<path class="st3" d="M261.21,129.61c-2.67,0.28-5.35,0.13-8.3,0.19c0.62-0.76,1.25-0.95,1.87-0.96c2.54-0.03,4.69-1.54,7.16-1.85
				c0.74-0.09,1.11-0.64,1.06-1.44c-0.02-0.33-0.03-0.68,0.06-0.99c0.13-0.42-0.19-1.24,0.79-1.02c0.71,0.16,1.64-0.03,1.47,1.28
				c-0.19,1.48,0.3,2.1,1.79,2.25c2.55,0.27,4.83,1.71,7.44,1.69c0.37,0,0.82,0.11,1.07,0.8c-2.2,0-4.32,0-6.44,0
				C266.52,129.42,263.86,129.33,261.21,129.61z"/>
			<path class="st3" d="M286.88,96.98c-0.44,0.7-1.16,0.97-1.89,1.05c-3.88,0.44-7.03,2.31-9.81,4.91c-0.06-0.11-0.15-0.2-0.13-0.34
				c0.32-1.82,0.26-3.68,0.56-5.51c0.27-0.22,0.59-0.25,0.93-0.25c3.29,0,6.58,0,9.88,0C286.58,96.85,286.74,96.88,286.88,96.98z"/>
			<path class="st3" d="M264.49,121.38c1.19,0.59,2.55,0.54,3.79,0.96c1.27,0.44,1.78,0.85,2.2,2.17c-2.43-1.85-5.1-1.07-7.56-1.62
				c-2.3-0.52-4.09-2.35-4.14-4.34c-0.02-0.63-0.1-1.41,0.61-1.74c0.49-0.23,2.05,1.09,2.12,1.69c0.2,1.58,0.56,2.08,1.75,2.37
				C263.87,120.54,264.29,120.69,264.49,121.38z"/>
			<path class="st3" d="M264.49,121.38c-0.41-0.17-0.83-0.33-1.24-0.5c-0.49-0.82,0-1.71-0.17-2.55c-0.04-0.2,0.12-0.45,0.37-0.4
				c0.56,0.11,1.18-0.11,1.67,0.23c0.29,0.2,0.13,2.82-0.16,3.08C264.86,121.34,264.65,121.34,264.49,121.38z"/>
			<path class="st3" d="M275.61,97.24c0.33,1.94-0.14,3.81-0.44,5.7c-0.16-0.24-0.32-0.49-0.48-0.73c0.42-1.73,0.67-3.48,0.26-5.25
				c0.16-0.08,0.31-0.16,0.46-0.23C275.57,96.86,275.66,97.03,275.61,97.24z"/>
			<path class="st3" d="M261.71,114.15c-0.33-0.06-0.57-0.23-0.75-0.51c0.03-0.16,0.05-0.32,0.08-0.48
				c0.14-0.64,0.48-1.12,1.13-1.31c0.22-0.06,0.42,0.08,0.44,0.31c0.06,0.68,0.19,1.4-0.59,1.82
				C261.93,114.04,261.82,114.09,261.71,114.15z"/>
			<path class="st3" d="M275.61,97.24c-0.07-0.17-0.13-0.35-0.2-0.52c3.65-0.02,7.31-0.04,10.96-0.04c0.19,0,0.52-0.12,0.5,0.3
				c-3.15,0-6.29,0-9.44-0.01C276.82,96.97,276.2,96.97,275.61,97.24z"/>
			<path class="st3" d="M261.21,129.61c0.85-0.47,1.79-0.29,2.67-0.26c1.77,0.06,3.55-0.28,5.29,0.21
				C266.52,129.58,263.86,129.59,261.21,129.61z"/>
		</g>
	</g>
</g>
</svg>
