<?xml version="1.0" standalone="no"?>
<!DOCTYPE svg PUBLIC "-//W3C//DTD SVG 20010904//EN"
 "http://www.w3.org/TR/2001/REC-SVG-20010904/DTD/svg10.dtd">
<svg version="1.0" xmlns="http://www.w3.org/2000/svg"
 width="480.000000pt" height="480.000000pt" viewBox="0 0 480.000000 480.000000"
 preserveAspectRatio="xMidYMid meet">

<g transform="translate(0.000000,480.000000) scale(0.100000,-0.100000)"
fill="#000000" stroke="none">
<path d="M1168 4090 c-46 -8 -171 -74 -217 -114 -36 -32 -51 -78 -51 -155 l0
-69 -34 -6 c-88 -17 -142 -121 -102 -198 14 -26 13 -27 -89 -112 -265 -220
-389 -423 -452 -741 -27 -135 -24 -433 6 -573 52 -247 140 -407 335 -610 294
-307 734 -530 1246 -632 888 -178 1815 47 2368 575 277 264 385 484 412 842
25 323 -41 621 -186 838 -69 104 -267 303 -376 378 -46 31 -48 33 -42 72 4 30
-1 51 -18 85 -19 38 -31 48 -75 65 l-53 20 0 60 c0 80 -14 126 -47 157 -43 40
-172 108 -222 118 -86 16 -106 6 -222 -107 l-106 -103 -49 15 c-27 8 -103 26
-169 40 -364 75 -783 84 -1147 24 -119 -19 -350 -73 -371 -86 -5 -3 -51 37
-101 89 -124 130 -147 142 -238 128z m218 -244 c83 -84 169 -180 191 -212 127
-190 441 -829 571 -1164 155 -400 169 -447 150 -516 -14 -55 -84 -119 -150
-140 -47 -14 -136 -16 -769 -19 -517 -2 -722 -6 -737 -14 -20 -11 -27 -5 -83
71 -113 153 -194 355 -213 537 l-7 64 173 -6 c421 -15 766 -91 1047 -229 148
-72 160 -75 185 -36 7 12 2 32 -22 80 -62 126 -82 269 -82 590 1 248 -7 297
-62 400 -17 32 -49 79 -70 103 l-40 45 -83 0 c-76 0 -89 3 -147 35 -140 77
-207 105 -280 116 -88 13 -102 20 -106 48 -6 37 15 51 76 51 47 0 60 -4 84
-27 l28 -27 75 24 76 24 72 -72 c40 -40 79 -72 86 -72 20 0 51 30 51 48 0 9
-30 46 -66 84 -62 64 -66 70 -50 87 9 9 16 24 16 32 0 18 -130 149 -149 149
-20 0 -51 -30 -51 -49 0 -8 19 -34 42 -58 l42 -42 -35 -15 c-73 -31 -88 -31
-120 0 -26 25 -29 34 -29 89 0 70 3 74 90 125 58 34 92 48 125 49 13 1 71 -50
171 -153z m2256 108 c95 -55 98 -59 98 -124 0 -51 -3 -59 -34 -89 l-34 -33
-56 18 c-31 10 -56 20 -56 24 0 3 14 19 31 36 47 44 53 61 34 90 -24 37 -51
29 -116 -33 -64 -61 -77 -89 -59 -123 10 -19 5 -28 -49 -85 -63 -65 -73 -92
-45 -119 27 -27 46 -18 121 56 l72 72 76 -24 75 -24 28 27 c24 23 37 27 85 27
46 0 58 -4 67 -20 6 -12 8 -30 5 -40 -7 -21 -9 -22 -117 -40 -63 -11 -152 -50
-262 -115 -42 -24 -63 -29 -148 -34 -112 -7 -112 -7 -188 -131 -64 -107 -73
-154 -71 -395 2 -320 -20 -489 -80 -611 -55 -111 -15 -142 98 -75 249 147 672
243 1141 258 l203 6 -7 -64 c-19 -182 -100 -384 -212 -535 -83 -111 -84 -111
-128 -84 l-36 23 -716 2 c-805 3 -781 1 -865 76 -89 77 -86 126 19 406 140
372 293 714 470 1046 168 317 173 325 354 510 164 169 164 169 202 163 20 -3
65 -22 100 -42z m-1041 -64 c155 -12 340 -40 469 -72 l90 -21 -25 -31 c-77
-95 -172 -261 -328 -573 -151 -302 -238 -498 -352 -793 -35 -91 -68 -178 -75
-195 -12 -30 -12 -29 -51 75 -128 340 -215 540 -369 855 -136 276 -248 480
-312 569 -27 37 -48 70 -46 72 10 9 258 66 368 83 238 39 416 47 631 31z
m1332 -477 c93 -71 226 -207 297 -303 105 -142 194 -351 215 -506 l6 -51 -203
-6 c-391 -11 -750 -78 -1016 -191 -69 -29 -82 -32 -77 -17 29 92 38 193 41
453 4 325 13 371 91 476 23 30 28 32 87 32 83 0 143 19 223 72 75 48 180 87
236 88 31 0 51 -10 100 -47z m-2865 -5 c37 -19 95 -49 130 -68 53 -29 75 -34
148 -38 l85 -5 30 -44 c72 -104 73 -107 80 -448 6 -244 11 -328 26 -395 l18
-86 -108 44 c-260 104 -697 182 -1025 182 l-104 0 7 53 c21 154 110 365 214
504 68 93 187 215 281 291 60 49 68 52 108 48 24 -2 74 -19 110 -38z m1347
-1597 c28 -30 69 -59 108 -77 60 -27 69 -28 297 -36 129 -5 458 -7 730 -6 345
2 501 0 514 -8 16 -10 10 -18 -65 -81 -247 -206 -528 -339 -914 -434 -204 -50
-368 -70 -615 -76 -318 -8 -555 17 -824 87 -332 85 -677 263 -884 455 l-64 60
698 1 c600 1 707 3 757 16 74 21 135 57 178 107 19 21 35 40 36 40 1 1 23 -21
48 -48z"/>
</g>
</svg>
